<svg xmlns="http://www.w3.org/2000/svg" viewBox="0 0 24 24"><path fill-opacity=".8" d="M19.82 2l2.915 3.845V8.74c0 .606-.17 1.173-.463 1.656V22.25H9.92v-6.4l-2.888.001v6.4h-5.07V10.73a3.173 3.173 0 01-.686-1.725h-.011V5.846L4.165 2H19.82zm-7.937 8.648l-.02.03a3.183 3.183 0 01-2.533 1.25c-.978 0-1.854-.44-2.439-1.134a3.178 3.178 0 01-2.438 1.134 3.19 3.19 0 01-.992-.157v8.979h2.071v-6.4h5.888v6.4h9.351l.001-9.066a3.184 3.184 0 01-3.78-1.037 3.178 3.178 0 01-2.554 1.281 3.184 3.184 0 01-2.555-1.28zm6.848 3.666V18.8H13.5v-4.486h5.232zm-1.5 1.499h-2.233v1.486h2.233v-1.486zM2.765 8.74a1.688 1.688 0 003.37.146l.007-.146v-.75h1.5v.75a1.688 1.688 0 003.37.146l.006-.146v-.75h1.732v.75a1.688 1.688 0 003.37.146l.007-.146v-.75h1.731v.75a1.688 1.688 0 003.37.146l.007-.146-.001-2.392-2.16-2.848H4.912L2.765 6.346V8.74z"></path></svg>