<svg width="24" height="24" viewBox="0 0 24 24" fill="none" xmlns="http://www.w3.org/2000/svg">
<path fill-rule="evenodd" fill="#000" fill-opacity=".8" clip-rule="evenodd" d="M1.50781 12C1.50781 6.20229 6.1562 1.51593 11.8736 1.51593C16.1531 1.51593 19.8338 4.14138 21.4144 7.8935L22.8221 7.37248C21.0306 3.05434 16.8071 0.0159302 11.8736 0.0159302C5.31284 0.0159302 0.0078125 5.38887 0.0078125 12C0.0078125 18.6111 5.31284 23.984 11.8736 23.984C13.3314 23.984 14.7277 23.7183 16.0177 23.2327L15.4824 21.8314C14.3585 22.2535 13.1427 22.484 11.8736 22.484C8.88056 22.484 6.18047 21.1997 4.28687 19.144V18.4681C4.28687 17.0022 5.47522 15.8138 6.94112 15.8138H14.4V14.3138H6.94112C5.04164 14.3138 3.43991 15.5887 2.94486 17.3294C2.03201 15.7685 1.50781 13.9469 1.50781 12ZM11.3684 11.7766C13.0365 11.7766 14.4158 10.4056 14.4158 8.68083C14.4158 6.95609 13.0365 5.58508 11.3684 5.58508C9.70032 5.58508 8.32104 6.95609 8.32104 8.68083C8.32104 10.4056 9.70032 11.7766 11.3684 11.7766ZM11.3684 13.2766C13.8799 13.2766 15.9158 11.219 15.9158 8.68083C15.9158 6.14267 13.8799 4.08508 11.3684 4.08508C8.85697 4.08508 6.82104 6.14267 6.82104 8.68083C6.82104 11.219 8.85697 13.2766 11.3684 13.2766ZM17.4158 15.794H22.5V18.5787C22.5 18.8549 22.2761 19.0787 22 19.0787H17.9158C17.6396 19.0787 17.4158 18.8549 17.4158 18.5787V15.794ZM15.9158 18.5787V14.294H17.1752V12.2043C17.1752 10.7076 18.489 9.61597 19.952 9.61597C21.415 9.61597 22.7288 10.7076 22.7288 12.2043V14.294H24V18.5787C24 19.6833 23.1046 20.5787 22 20.5787H17.9158C16.8112 20.5787 15.9158 19.6833 15.9158 18.5787ZM18.6752 12.2043V14.294H21.2288V12.2043C21.2288 11.6704 20.7278 11.116 19.952 11.116C19.1763 11.116 18.6752 11.6704 18.6752 12.2043Z"></path>
</svg>